<mxfile host="app.diagrams.net" agent="Mozilla/5.0 (X11; Linux x86_64) AppleWebKit/537.36 (KHTML, like Gecko) Chrome/135.0.0.0 Safari/537.36" version="26.2.12">
  <diagram name="Page-1" id="lAr2r3nYIaIwvw2_lKxv">
    <mxGraphModel dx="728" dy="404" grid="1" gridSize="10" guides="1" tooltips="1" connect="1" arrows="1" fold="1" page="1" pageScale="1" pageWidth="850" pageHeight="1100" math="0" shadow="0">
      <root>
        <mxCell id="0" />
        <mxCell id="1" parent="0" />
        <mxCell id="HIIsDf9v45Gc9ZHSl2wO-3" style="edgeStyle=orthogonalEdgeStyle;rounded=0;orthogonalLoop=1;jettySize=auto;html=1;exitX=0.5;exitY=1;exitDx=0;exitDy=0;entryX=0.5;entryY=0;entryDx=0;entryDy=0;" edge="1" parent="1" source="HIIsDf9v45Gc9ZHSl2wO-1" target="HIIsDf9v45Gc9ZHSl2wO-2">
          <mxGeometry relative="1" as="geometry" />
        </mxCell>
        <mxCell id="HIIsDf9v45Gc9ZHSl2wO-1" value="Inicio" style="rounded=1;whiteSpace=wrap;html=1;" vertex="1" parent="1">
          <mxGeometry x="320" y="100" width="120" height="60" as="geometry" />
        </mxCell>
        <mxCell id="HIIsDf9v45Gc9ZHSl2wO-8" style="edgeStyle=orthogonalEdgeStyle;rounded=0;orthogonalLoop=1;jettySize=auto;html=1;exitX=0.5;exitY=1;exitDx=0;exitDy=0;entryX=0.5;entryY=0;entryDx=0;entryDy=0;" edge="1" parent="1" source="HIIsDf9v45Gc9ZHSl2wO-2" target="HIIsDf9v45Gc9ZHSl2wO-4">
          <mxGeometry relative="1" as="geometry" />
        </mxCell>
        <mxCell id="HIIsDf9v45Gc9ZHSl2wO-2" value="Pegue uma panela adequada" style="rounded=0;whiteSpace=wrap;html=1;" vertex="1" parent="1">
          <mxGeometry x="320" y="230" width="120" height="60" as="geometry" />
        </mxCell>
        <mxCell id="HIIsDf9v45Gc9ZHSl2wO-12" style="edgeStyle=orthogonalEdgeStyle;rounded=0;orthogonalLoop=1;jettySize=auto;html=1;exitX=1;exitY=0.5;exitDx=0;exitDy=0;" edge="1" parent="1" source="HIIsDf9v45Gc9ZHSl2wO-4" target="HIIsDf9v45Gc9ZHSl2wO-9">
          <mxGeometry relative="1" as="geometry" />
        </mxCell>
        <mxCell id="HIIsDf9v45Gc9ZHSl2wO-4" value="É para uma pessoa?" style="rhombus;whiteSpace=wrap;html=1;" vertex="1" parent="1">
          <mxGeometry x="280" y="360" width="200" height="80" as="geometry" />
        </mxCell>
        <mxCell id="HIIsDf9v45Gc9ZHSl2wO-6" value="Sim" style="text;html=1;align=center;verticalAlign=middle;resizable=0;points=[];autosize=1;strokeColor=none;fillColor=none;" vertex="1" parent="1">
          <mxGeometry x="230" y="370" width="40" height="30" as="geometry" />
        </mxCell>
        <mxCell id="HIIsDf9v45Gc9ZHSl2wO-7" value="Não" style="text;html=1;align=center;verticalAlign=middle;resizable=0;points=[];autosize=1;strokeColor=none;fillColor=none;" vertex="1" parent="1">
          <mxGeometry x="490" y="370" width="50" height="30" as="geometry" />
        </mxCell>
        <mxCell id="HIIsDf9v45Gc9ZHSl2wO-15" style="edgeStyle=orthogonalEdgeStyle;rounded=0;orthogonalLoop=1;jettySize=auto;html=1;entryX=1;entryY=0.5;entryDx=0;entryDy=0;" edge="1" parent="1" source="HIIsDf9v45Gc9ZHSl2wO-9" target="HIIsDf9v45Gc9ZHSl2wO-13">
          <mxGeometry relative="1" as="geometry">
            <Array as="points">
              <mxPoint x="540" y="820" />
            </Array>
          </mxGeometry>
        </mxCell>
        <mxCell id="HIIsDf9v45Gc9ZHSl2wO-9" value="Pegue um pacote de macarrão" style="rounded=0;whiteSpace=wrap;html=1;" vertex="1" parent="1">
          <mxGeometry x="490" y="540" width="120" height="60" as="geometry" />
        </mxCell>
        <mxCell id="HIIsDf9v45Gc9ZHSl2wO-14" style="edgeStyle=orthogonalEdgeStyle;rounded=0;orthogonalLoop=1;jettySize=auto;html=1;exitX=0.5;exitY=1;exitDx=0;exitDy=0;entryX=0;entryY=0.5;entryDx=0;entryDy=0;" edge="1" parent="1" source="HIIsDf9v45Gc9ZHSl2wO-10" target="HIIsDf9v45Gc9ZHSl2wO-13">
          <mxGeometry relative="1" as="geometry" />
        </mxCell>
        <mxCell id="HIIsDf9v45Gc9ZHSl2wO-10" value="Pegue a quantidade de pacotes igual ao número de pessoas" style="rounded=0;whiteSpace=wrap;html=1;" vertex="1" parent="1">
          <mxGeometry x="160" y="510" width="150" height="160" as="geometry" />
        </mxCell>
        <mxCell id="HIIsDf9v45Gc9ZHSl2wO-11" style="edgeStyle=orthogonalEdgeStyle;rounded=0;orthogonalLoop=1;jettySize=auto;html=1;entryX=0.447;entryY=-0.019;entryDx=0;entryDy=0;entryPerimeter=0;exitX=0;exitY=0.5;exitDx=0;exitDy=0;" edge="1" parent="1" source="HIIsDf9v45Gc9ZHSl2wO-4" target="HIIsDf9v45Gc9ZHSl2wO-10">
          <mxGeometry relative="1" as="geometry">
            <Array as="points">
              <mxPoint x="227" y="400" />
            </Array>
          </mxGeometry>
        </mxCell>
        <mxCell id="HIIsDf9v45Gc9ZHSl2wO-19" style="edgeStyle=orthogonalEdgeStyle;rounded=0;orthogonalLoop=1;jettySize=auto;html=1;entryX=0.5;entryY=0;entryDx=0;entryDy=0;" edge="1" parent="1" source="HIIsDf9v45Gc9ZHSl2wO-13" target="HIIsDf9v45Gc9ZHSl2wO-17">
          <mxGeometry relative="1" as="geometry" />
        </mxCell>
        <mxCell id="HIIsDf9v45Gc9ZHSl2wO-13" value="Separe a porção de água (1L de água para cada pacote de macarrão)" style="rounded=0;whiteSpace=wrap;html=1;" vertex="1" parent="1">
          <mxGeometry x="320" y="790" width="120" height="60" as="geometry" />
        </mxCell>
        <mxCell id="HIIsDf9v45Gc9ZHSl2wO-21" style="edgeStyle=orthogonalEdgeStyle;rounded=0;orthogonalLoop=1;jettySize=auto;html=1;entryX=0.5;entryY=0;entryDx=0;entryDy=0;" edge="1" parent="1" source="HIIsDf9v45Gc9ZHSl2wO-16" target="HIIsDf9v45Gc9ZHSl2wO-18">
          <mxGeometry relative="1" as="geometry" />
        </mxCell>
        <mxCell id="HIIsDf9v45Gc9ZHSl2wO-16" value="Cologue a panela na boca que foi ligada" style="rounded=0;whiteSpace=wrap;html=1;" vertex="1" parent="1">
          <mxGeometry x="320" y="990" width="120" height="60" as="geometry" />
        </mxCell>
        <mxCell id="HIIsDf9v45Gc9ZHSl2wO-20" style="edgeStyle=orthogonalEdgeStyle;rounded=0;orthogonalLoop=1;jettySize=auto;html=1;exitX=0.5;exitY=1;exitDx=0;exitDy=0;entryX=0.5;entryY=0;entryDx=0;entryDy=0;" edge="1" parent="1" source="HIIsDf9v45Gc9ZHSl2wO-17" target="HIIsDf9v45Gc9ZHSl2wO-16">
          <mxGeometry relative="1" as="geometry" />
        </mxCell>
        <mxCell id="HIIsDf9v45Gc9ZHSl2wO-17" value="Ligue a boca do fogão" style="rounded=0;whiteSpace=wrap;html=1;" vertex="1" parent="1">
          <mxGeometry x="320" y="890" width="120" height="60" as="geometry" />
        </mxCell>
        <mxCell id="HIIsDf9v45Gc9ZHSl2wO-22" style="edgeStyle=orthogonalEdgeStyle;rounded=0;orthogonalLoop=1;jettySize=auto;html=1;exitX=0.5;exitY=1;exitDx=0;exitDy=0;" edge="1" parent="1" source="HIIsDf9v45Gc9ZHSl2wO-18">
          <mxGeometry relative="1" as="geometry">
            <mxPoint x="380.3333333333335" y="1280" as="targetPoint" />
          </mxGeometry>
        </mxCell>
        <mxCell id="HIIsDf9v45Gc9ZHSl2wO-18" value="Quando água da penela começar a fever, coloque a porção de água que foi sepadara na panela" style="rounded=0;whiteSpace=wrap;html=1;" vertex="1" parent="1">
          <mxGeometry x="320" y="1120" width="120" height="100" as="geometry" />
        </mxCell>
        <mxCell id="HIIsDf9v45Gc9ZHSl2wO-26" style="edgeStyle=orthogonalEdgeStyle;rounded=0;orthogonalLoop=1;jettySize=auto;html=1;entryX=0.5;entryY=0;entryDx=0;entryDy=0;" edge="1" parent="1" source="HIIsDf9v45Gc9ZHSl2wO-23" target="HIIsDf9v45Gc9ZHSl2wO-24">
          <mxGeometry relative="1" as="geometry" />
        </mxCell>
        <mxCell id="HIIsDf9v45Gc9ZHSl2wO-23" value="Após 3 min, coloque o tempero e misture durante 2min" style="rounded=0;whiteSpace=wrap;html=1;" vertex="1" parent="1">
          <mxGeometry x="320" y="1280" width="120" height="60" as="geometry" />
        </mxCell>
        <mxCell id="HIIsDf9v45Gc9ZHSl2wO-27" style="edgeStyle=orthogonalEdgeStyle;rounded=0;orthogonalLoop=1;jettySize=auto;html=1;entryX=0.5;entryY=0;entryDx=0;entryDy=0;" edge="1" parent="1" source="HIIsDf9v45Gc9ZHSl2wO-24" target="HIIsDf9v45Gc9ZHSl2wO-25">
          <mxGeometry relative="1" as="geometry" />
        </mxCell>
        <mxCell id="HIIsDf9v45Gc9ZHSl2wO-24" value="Desligue o fogão" style="rounded=0;whiteSpace=wrap;html=1;" vertex="1" parent="1">
          <mxGeometry x="320" y="1380" width="120" height="60" as="geometry" />
        </mxCell>
        <mxCell id="HIIsDf9v45Gc9ZHSl2wO-30" style="edgeStyle=orthogonalEdgeStyle;rounded=0;orthogonalLoop=1;jettySize=auto;html=1;entryX=0.5;entryY=0;entryDx=0;entryDy=0;" edge="1" parent="1" source="HIIsDf9v45Gc9ZHSl2wO-25" target="HIIsDf9v45Gc9ZHSl2wO-29">
          <mxGeometry relative="1" as="geometry" />
        </mxCell>
        <mxCell id="HIIsDf9v45Gc9ZHSl2wO-25" value="Sirva o macarrão feito em um prato fundo para não ter perigo de derramar" style="rounded=0;whiteSpace=wrap;html=1;" vertex="1" parent="1">
          <mxGeometry x="320" y="1480" width="120" height="60" as="geometry" />
        </mxCell>
        <mxCell id="HIIsDf9v45Gc9ZHSl2wO-29" value="Fim" style="rounded=1;whiteSpace=wrap;html=1;" vertex="1" parent="1">
          <mxGeometry x="320" y="1590" width="120" height="60" as="geometry" />
        </mxCell>
      </root>
    </mxGraphModel>
  </diagram>
</mxfile>
